<?xml version="1.0" encoding="UTF-8" standalone="no"?>
<!-- Created with Inkscape (http://www.inkscape.org/) -->

<svg
   xmlns:dc="http://purl.org/dc/elements/1.1/"
   xmlns:cc="http://creativecommons.org/ns#"
   xmlns:rdf="http://www.w3.org/1999/02/22-rdf-syntax-ns#"
   xmlns:svg="http://www.w3.org/2000/svg"
   xmlns="http://www.w3.org/2000/svg"
   xmlns:sodipodi="http://sodipodi.sourceforge.net/DTD/sodipodi-0.dtd"
   xmlns:inkscape="http://www.inkscape.org/namespaces/inkscape"
   width="159.53394"
   height="77.561905"
   id="svg2"
   version="1.1"
   inkscape:version="0.48.2 r9819"
   sodipodi:docname="logo_antimsvg.svg">
  <defs
     id="defs4" />
  <sodipodi:namedview
     id="base"
     pagecolor="#ffffff"
     bordercolor="#666666"
     borderopacity="1.0"
     inkscape:pageopacity="0.0"
     inkscape:pageshadow="2"
     inkscape:zoom="4.6650813"
     inkscape:cx="69.956551"
     inkscape:cy="59.291248"
     inkscape:document-units="px"
     inkscape:current-layer="layer1"
     showgrid="false"
     inkscape:window-width="1854"
     inkscape:window-height="1056"
     inkscape:window-x="66"
     inkscape:window-y="24"
     inkscape:window-maximized="1"
     fit-margin-top="0"
     fit-margin-left="0"
     fit-margin-right="0"
     fit-margin-bottom="0" />
  <metadata
     id="metadata7">
    <rdf:RDF>
      <cc:Work
         rdf:about="">
        <dc:format>image/svg+xml</dc:format>
        <dc:type
           rdf:resource="http://purl.org/dc/dcmitype/StillImage" />
        <dc:title></dc:title>
      </cc:Work>
    </rdf:RDF>
  </metadata>
  <g
     inkscape:label="Layer 1"
     inkscape:groupmode="layer"
     id="layer1"
     transform="translate(-255.60896,-668.4658)">
    <path
       style="fill:#000000"
       d="m 277.86039,745.33414 c -4.67204,-1.17862 -9.7175,-3.72485 -9.7175,-4.90402 0,-0.48439 0.7875,-0.72263 1.75,-0.52944 0.9625,0.19319 3.45,0.6238 5.52779,0.95691 2.07778,0.3331 3.56387,0.95178 3.30241,1.37483 -0.76698,1.24099 15.70923,0.61994 18.10406,-0.68241 1.20134,-0.6533 3.90134,-1.1714 6,-1.15131 l 3.81574,0.0365 -5.08684,2.46244 c -5.78285,2.79937 -17.48675,4.00281 -23.69566,2.43648 z m -13.7175,-10.34952 c 0,-1.90907 -1.64342,-2.18001 -2.25909,-0.37244 -0.23417,0.6875 -1.71945,-1.45 -3.30064,-4.75 -3.92513,-8.19191 -3.96882,-18.85954 -0.1095,-26.73542 8.02999,-16.38715 28.19695,-23.95442 43.22795,-16.22046 5.71468,2.94039 10.6615,7.98714 11.88341,12.12345 0.46881,1.58697 0.23796,2.10851 -0.86185,1.94709 -1.803,-0.26462 -6.69102,-7.17059 -5.74495,-8.11666 0.36557,-0.36557 0.21467,-0.5362 -0.33533,-0.37919 -0.55,0.15701 -2.94328,-0.73033 -5.31839,-1.97188 -13.52359,-7.06921 -31.72485,-0.002 -37.11793,14.41243 -2.96584,7.92689 -2.83821,18.57178 0.2969,24.76442 1.96108,3.87363 2.13032,4.85385 1,5.79193 -1.05236,0.87338 -1.36058,0.76163 -1.36058,-0.49327 z m 13.3736,-3.56132 c -5.79896,-2.46867 -8.09746,-11.69109 -4.85055,-19.46205 2.16265,-5.17594 8.83903,-11.57236 12.22695,-11.71422 4.72277,-0.19777 6.68829,0.24592 8.58199,1.93728 1.69909,1.51754 1.90219,1.5108 2.79969,-0.093 1.01029,-1.80529 3.52676,-2.23371 5.55283,-0.94533 0.87838,0.55856 0.42773,3.46204 -1.74376,11.23469 -3.31985,11.88309 -3.54046,14.23885 -1.4926,15.93843 2.05918,1.70896 6.36485,-0.54733 9.26452,-4.85486 l 2.28733,-3.39788 0,2.97357 c 0,4.59572 -6.03107,9.3222 -11.8953,9.3222 -2.95779,0 -7.09904,-3.16787 -7.10967,-5.43856 -0.003,-0.58379 -1.01523,0.19033 -2.25,1.72028 -2.45227,3.03851 -7.73166,4.32889 -11.37143,2.7794 z m 8.31066,-3.34656 c 1.20134,-0.66801 2.235,-1.5427 2.29703,-1.94376 0.062,-0.40106 0.97135,-2.67017 2.02074,-5.04248 3.87211,-8.75355 3.84363,-17.72832 -0.0563,-17.72832 -3.42004,0 -6.65054,2.88341 -8.73646,7.79779 -3.07489,7.24438 -3.7032,12.79949 -1.77971,15.7351 1.79595,2.74098 3.03085,2.97428 6.25466,1.18167 z m 8.66082,-9.25769 c -0.32569,-0.84872 -0.80663,-1.32866 -1.06875,-1.06653 -0.26213,0.26213 -0.17998,0.95654 0.18255,1.54313 0.98605,1.59546 1.56238,1.28551 0.8862,-0.4766 z m 5.33803,-15.64437 c -0.31922,-0.79773 -0.55618,-0.56078 -0.60416,0.60417 -0.0434,1.05416 0.19293,1.64479 0.52522,1.3125 0.33229,-0.3323 0.36782,-1.1948 0.079,-1.91667 z m 11.37645,13.1875 -0.11323,-14 3.03662,0 c 3.37521,0 3.7438,0.36086 11.23569,11 l 5.28136,7.5 0.28753,-9.25 c 0.28329,-9.11382 0.32419,-9.25 2.77822,-9.25 l 2.49069,0 -0.27822,13.75 -0.27822,13.75 -2.57066,0.29911 c -2.14723,0.24985 -3.26914,-0.69664 -6.81129,-5.74632 -2.49432,-3.5559 -3.94347,-6.56171 -3.51901,-7.29911 0.39688,-0.68953 0.35765,-0.92437 -0.0872,-0.52187 -0.82311,0.74475 -4.51185,-2.84014 -4.51185,-4.38482 0,-0.46585 -0.45,-0.84699 -1,-0.84699 -0.59649,0 -1,3.83333 -1,9.5 0,9.37599 -0.0315,9.5 -2.41361,9.5 l -2.4136,0 -0.11323,-14 z m 22.62355,-0.1875 c -0.31922,-0.79773 -0.55618,-0.56078 -0.60416,0.60417 -0.0434,1.05416 0.19292,1.64479 0.52522,1.3125 0.33229,-0.3323 0.36781,-1.1948 0.0789,-1.91667 z m 16.02947,13.56674 c -0.39192,-0.39192 -0.71258,-5.82667 -0.71258,-12.07723 l 0,-11.36466 -3.56208,0.23989 c -3.30748,0.22275 -5.96007,-1.52336 -4.90575,-3.22929 0.22011,-0.35615 5.59042,-0.69449 11.93402,-0.75187 11.29569,-0.10216 11.53381,-0.0583 11.53381,2.12623 0,1.99615 -0.4169,2.19078 -3.96738,1.85219 l -3.96739,-0.37835 -0.28261,11.85192 -0.28262,11.85193 -2.53742,0.29591 c -1.39559,0.16275 -2.85809,-0.0247 -3.25,-0.41667 z m 3.97053,-11.56674 c -0.31922,-0.79773 -0.55618,-0.56078 -0.60416,0.60417 -0.0434,1.05416 0.19292,1.64479 0.52522,1.3125 0.33229,-0.3323 0.36781,-1.1948 0.0789,-1.91667 z m 15.98356,11.52083 c -0.36667,-0.36666 -0.66667,-6.57095 -0.66667,-13.78729 l 0,-13.12063 3,-0.22859 3,-0.22859 0,14.01588 0,14.01589 -2.33333,0 c -1.28334,0 -2.63334,-0.3 -3,-0.66667 z m 13.33333,-13.55144 0,-13.78189 4.46482,0 c 3.49732,0 4.70582,0.45032 5.577,2.07814 0.6117,1.14298 0.85769,2.74135 0.54664,3.55194 -0.31105,0.81059 -0.1531,1.21889 0.351,0.90734 0.5041,-0.31156 1.22754,0.41337 1.60763,1.61095 0.3801,1.19758 1.35707,3.77133 2.17104,5.71945 l 1.47995,3.54203 3.05329,-7.95493 c 1.67931,-4.37521 3.54724,-8.28553 4.15096,-8.68961 0.60372,-0.40408 2.78517,-0.74158 4.84767,-0.75 l 3.75,-0.0153 0,14.06642 0,14.06642 -2.75,-0.31642 -2.75,-0.31642 -0.51076,-10.5 c -0.56571,-11.62963 -0.45229,-11.6702 -5.59122,2 -1.82957,4.86688 -3.83963,8.63046 -4.7027,8.80522 -1.05791,0.21422 -2.40669,-2.02683 -4.52359,-7.51612 -1.65892,-4.30175 -3.325,-9.0516 -3.70239,-10.55523 -1.42184,-5.66507 -2.46934,-2.37542 -2.46934,7.75493 l 0,10.4888 -2.5,-0.20691 -2.5,-0.20691 0,-13.78189 z M 369.5359,689.86218 c 0.33385,-0.825 0.87444,-2.2875 1.20132,-3.25 0.50041,-1.47344 0.42381,-1.51295 -0.48468,-0.25 -0.59347,0.825 -1.08592,1.0725 -1.09434,0.55 -0.008,-0.5225 -0.55531,-0.41 -1.21531,0.25 -1.78215,1.78215 -2.58455,1.4893 -4.16046,-1.51844 -1.26235,-2.40929 -1.23755,-2.86418 0.21806,-4 1.51396,-1.18134 1.49999,-1.392 -0.17868,-2.69378 -1.71122,-1.32702 -1.72254,-1.60275 -0.18772,-4.57076 1.30752,-2.52847 1.91141,-2.92777 3.02727,-2.00169 1.74345,1.44693 3.62536,0.38368 3.25805,-1.84074 -0.20327,-1.23101 0.58437,-1.7576 2.97348,-1.98795 2.68991,-0.25935 3.25,0.0321 3.25,1.69098 0,2.30296 1.56017,3.64305 2.48992,2.13869 1.03638,-1.67691 1.98374,-1.17735 3.89135,2.05198 1.78203,3.01673 1.77725,3.07749 -0.2844,3.61663 -1.96462,0.51376 -2.99511,2.29674 -1.34687,2.33039 0.4125,0.008 1.35494,0.39871 2.0943,0.8673 1.10677,0.70144 1.04755,1.42584 -0.3351,4.09959 -1.23498,2.3882 -1.97443,2.95257 -2.7943,2.1327 -1.9069,-1.9069 -3.7149,-1.23279 -3.7149,1.3851 0,2.2046 -0.4262,2.5 -3.60699,2.5 -2.80932,0 -3.47275,-0.33172 -3,-1.5 z"
       id="path3087"
       inkscape:connector-curvature="0" />
    <path
       style="fill:#000000"
       d=""
       id="path3085"
       inkscape:connector-curvature="0" />
  </g>
</svg>
